<svg xmlns="http://www.w3.org/2000/svg" height="512pt" version="1.1" viewBox="0 0 512 512" width="512pt">
<g id="surface1">
<path d="M 456.832031 0 L 55.164062 0 C 24.746094 0 0 24.746094 0 55.167969 L 0 456.832031 C 0 487.253906 24.746094 512 55.164062 512 L 456.832031 512 C 487.253906 512 512 487.253906 512 456.832031 L 512 55.167969 C 512 24.746094 487.253906 0 456.832031 0 Z M 482 456.832031 C 482 470.710938 470.710938 482 456.832031 482 L 55.164062 482 C 41.289062 482 30 470.710938 30 456.832031 L 30 55.167969 C 30 41.289062 41.289062 30 55.164062 30 L 456.832031 30 C 470.710938 30 482 41.289062 482 55.167969 Z M 482 456.832031 " style=" stroke:none;fill-rule:nonzero;fill:rgb(0%,0%,0%);fill-opacity:1;" />
<path d="M 400.601562 417.734375 L 111.398438 417.734375 C 103.117188 417.734375 96.398438 424.449219 96.398438 432.734375 C 96.398438 441.015625 103.117188 447.734375 111.398438 447.734375 L 400.601562 447.734375 C 408.882812 447.734375 415.601562 441.015625 415.601562 432.734375 C 415.601562 424.449219 408.882812 417.734375 400.601562 417.734375 Z M 400.601562 417.734375 " style=" stroke:none;fill-rule:nonzero;fill:rgb(0%,0%,0%);fill-opacity:1;" />
<path d="M 336.332031 383.46875 C 344.617188 383.46875 351.332031 376.75 351.332031 368.46875 C 351.332031 360.183594 344.617188 353.46875 336.332031 353.46875 L 175.664062 353.46875 C 167.382812 353.46875 160.664062 360.183594 160.664062 368.46875 C 160.664062 376.75 167.382812 383.46875 175.664062 383.46875 Z M 336.332031 383.46875 " style=" stroke:none;fill-rule:nonzero;fill:rgb(0%,0%,0%);fill-opacity:1;" />
<path d="M 432.730469 64.269531 L 79.269531 64.269531 C 70.984375 64.269531 64.269531 70.984375 64.269531 79.269531 L 64.269531 304.199219 C 64.269531 312.484375 70.984375 319.199219 79.269531 319.199219 L 432.734375 319.199219 C 441.015625 319.199219 447.734375 312.484375 447.734375 304.199219 L 447.734375 79.269531 C 447.730469 70.984375 441.015625 64.269531 432.730469 64.269531 Z M 417.730469 257.613281 L 332.585938 134.976562 C 329.792969 130.953125 325.207031 128.546875 320.308594 128.53125 C 320.292969 128.53125 320.28125 128.53125 320.265625 128.53125 C 315.378906 128.53125 310.800781 130.910156 307.992188 134.910156 L 265.644531 195.203125 L 215.855469 94.269531 L 417.730469 94.269531 Z M 312.007812 289.199219 L 280.765625 225.867188 L 320.195312 169.734375 L 403.140625 289.199219 Z M 278.554688 289.199219 L 104.910156 289.199219 L 191.730469 113.175781 Z M 167.609375 94.269531 L 94.269531 242.960938 L 94.269531 94.269531 Z M 167.609375 94.269531 " style=" stroke:none;fill-rule:nonzero;fill:rgb(0%,0%,0%);fill-opacity:1;" />
</g>
</svg>